<svg version="1.1" id="Layer_1" xmlns="http://www.w3.org/2000/svg" xmlns:xlink="http://www.w3.org/1999/xlink" x="0px" y="0px"
	 width="100%" viewBox="0 0 1024 1024" enable-background="new 0 0 1024 1024" xml:space="preserve">
<path fill="#4B135E" opacity="1.000000" stroke="none" 
	d="
M445.000000,1025.000000 
	C296.666656,1025.000000 148.833328,1025.000000 1.000000,1025.000000 
	C1.000000,683.666687 1.000000,342.333344 1.000000,1.000000 
	C342.333344,1.000000 683.666687,1.000000 1025.000000,1.000000 
	C1025.000000,342.333344 1025.000000,683.666687 1025.000000,1025.000000 
	C831.833313,1025.000000 638.666687,1025.000000 445.000000,1025.000000 
M746.359863,663.320190 
	C746.359863,663.320190 746.558105,663.301636 747.181885,663.370239 
	C747.521790,662.762268 747.861633,662.154236 748.270691,661.270386 
	C748.270691,661.270386 748.535095,661.165710 749.200562,661.330872 
	C753.548950,659.518860 755.644409,656.083984 756.276001,651.307373 
	C756.276001,651.307373 756.519592,651.213623 757.182434,651.337952 
	C760.243652,646.600464 763.690857,642.059692 766.237854,637.060242 
	C768.111084,633.383423 768.806335,629.106506 770.087219,624.345276 
	C775.023254,610.173340 777.017395,595.553101 776.559692,580.596191 
	C775.500000,545.969666 761.037170,518.911926 729.593750,503.276855 
	C713.002319,495.026855 695.094910,489.331757 677.568726,483.080078 
	C661.119446,477.212616 644.143860,472.774475 627.843445,466.546539 
	C605.807129,458.127075 595.704834,440.961426 594.630249,417.730225 
	C593.054016,383.654175 613.316895,355.126617 644.825134,348.264771 
	C663.907104,344.109131 682.638916,346.407532 700.791138,353.251923 
	C716.493042,359.172485 727.450745,369.974426 732.755005,386.075439 
	C734.836975,392.395233 736.639648,398.812225 738.402039,405.230927 
	C740.939209,414.471619 740.874207,414.492889 750.535828,413.804871 
	C750.826599,413.784180 751.100281,413.524658 751.490845,413.319183 
	C751.595886,412.922119 751.826172,412.457214 751.826416,411.992188 
	C751.839294,387.493317 751.790527,362.994324 751.879517,338.495789 
	C751.891174,335.314240 750.290344,334.277832 747.638916,334.352112 
	C745.665527,334.407410 743.353210,334.387543 741.796570,335.364624 
	C730.960144,342.166779 719.810913,340.068939 708.446899,337.235565 
	C691.765381,333.076447 674.918030,329.825256 657.603943,330.174530 
	C629.758423,330.736176 604.532410,338.746552 584.503662,358.685303 
	C560.680603,382.401337 554.506775,412.133850 558.610718,444.399414 
	C562.136047,472.116211 577.435242,491.664673 602.808899,502.973785 
	C613.881714,507.908997 625.406555,511.897186 636.897522,515.812195 
	C656.421570,522.464050 676.347229,528.017456 695.609680,535.334167 
	C715.093384,542.734985 729.062805,556.289978 734.613586,577.153687 
	C737.516357,588.064331 738.243774,599.166382 736.919189,610.365234 
	C734.713196,629.015625 728.778076,646.135437 715.131470,659.663147 
	C694.385803,680.227966 657.521790,685.625732 628.253662,672.660522 
	C607.892334,663.640869 594.824890,647.368591 586.088379,627.798889 
	C574.149353,601.055725 563.418884,573.772705 552.205627,546.706543 
	C551.919128,546.014954 552.042664,545.153320 551.937683,543.940002 
	C562.992615,543.940002 573.762878,543.940002 584.388000,543.940002 
	C584.388000,537.799133 584.388000,532.078674 584.388000,526.071716 
	C573.004211,526.071716 562.170898,525.750671 551.371399,526.215210 
	C546.410400,526.428589 544.163574,524.922546 542.307129,520.307251 
	C517.392578,458.365601 492.236542,396.521118 467.257202,334.605377 
	C465.951294,331.368500 464.479004,329.961426 460.804749,330.115570 
	C453.152130,330.436493 445.456879,330.532593 437.817291,330.078552 
	C433.095459,329.797943 430.777771,331.477539 428.843597,335.680298 
	C389.590363,420.972595 350.255859,506.227692 310.811768,591.431946 
	C300.746399,613.174438 290.664246,634.928650 279.780609,656.264709 
	C274.171478,667.260620 266.703003,677.643921 255.105194,683.019348 
	C249.038269,685.831360 248.518616,689.241150 249.764343,694.717529 
	C272.305115,694.717529 294.830872,694.717529 317.376099,694.717529 
	C317.376099,691.044434 317.376099,687.765991 317.376099,684.540527 
	C300.547638,681.529602 297.060760,676.517639 302.628479,660.433044 
	C308.662903,643.000366 315.894257,625.981934 323.353271,608.684082 
	C324.177307,607.778259 325.340881,607.008423 325.767242,605.943420 
	C327.730286,601.039856 329.159241,595.901123 331.381622,591.126953 
	C337.563965,577.846130 344.710968,564.967468 350.081055,551.378357 
	C352.232239,545.934692 354.985504,545.839417 359.235291,545.842896 
	C405.515381,545.880615 451.797638,546.095276 498.073486,545.652710 
	C505.692596,545.579895 509.853638,547.925415 512.240662,554.733337 
	C514.846069,562.163879 517.571045,569.554443 520.371460,576.914001 
	C523.238708,584.449341 526.437927,591.862000 529.172363,599.443542 
	C533.139648,610.443481 536.510193,621.666748 540.727783,632.565430 
	C543.711914,640.277039 547.614258,647.640198 551.300720,655.062500 
	C551.669189,655.804504 553.385925,655.876770 554.761353,656.421692 
	C554.761353,656.421692 554.839417,656.739441 554.811890,657.088440 
	C554.905273,657.342834 555.087341,657.463928 555.499451,657.481873 
	C555.499451,657.481873 555.512268,657.625732 555.370667,658.399292 
	C555.265198,659.770569 555.159729,661.141785 555.023376,662.914490 
	C557.155334,662.792419 558.748169,662.701172 560.358887,662.650513 
	C560.358887,662.650513 560.399719,662.667847 560.560364,663.102539 
	C560.754639,663.373779 561.018372,663.517334 561.437012,663.548340 
	C561.437012,663.548340 561.459717,663.632019 561.443481,664.340393 
	C563.618591,667.720764 565.742920,671.174622 570.871338,670.708069 
	C570.871338,670.708069 571.018372,670.935913 571.247559,671.529663 
	C571.965942,671.818054 572.684265,672.106445 573.561768,672.394165 
	C573.561768,672.394165 573.611023,672.545471 573.536682,673.234192 
	C574.680054,674.318909 575.641296,675.796143 576.996216,676.424805 
	C586.060059,680.630005 595.179749,684.719055 604.345032,688.698914 
	C607.208435,689.942261 610.536621,690.276794 613.178772,691.831604 
	C617.721497,694.504822 622.236206,694.360657 627.662109,693.060425 
	C628.093323,693.170837 628.524536,693.281250 628.997742,693.925476 
	C629.335083,694.342285 629.672424,694.759094 630.009766,695.175964 
	C630.339417,694.746643 630.669128,694.317383 631.676819,693.833557 
	C632.120544,693.916260 632.564270,693.999023 633.305725,694.714355 
	C639.195251,695.138550 645.084778,695.562744 651.848938,695.886841 
	C653.898438,695.963440 655.947876,696.040100 658.326477,696.759766 
	C659.206665,697.123291 660.145447,697.902954 660.958252,697.788330 
	C673.882507,695.966553 686.921448,694.646484 699.665222,691.943787 
	C711.956177,689.337158 723.388672,684.045837 733.539490,676.434021 
	C735.156250,675.221680 736.162537,673.195312 737.487000,671.429504 
	C737.487000,671.429504 737.607910,671.419739 738.319824,671.521179 
	C740.537048,669.332458 742.754272,667.143677 744.999146,665.000427 
	C744.999146,665.000427 744.954102,664.971619 745.498962,664.842041 
	C745.773132,664.399902 746.047302,663.957764 746.359863,663.320190 
z"/>
<path fill="#F9F5FA" opacity="1.000000" stroke="none" 
	d="
M633.007996,694.081787 
	C632.564270,693.999023 632.120544,693.916260 631.119873,693.690552 
	C630.027161,693.495544 629.491516,693.443604 628.955811,693.391602 
	C628.524536,693.281250 628.093323,693.170837 626.971741,692.930420 
	C607.533386,689.146362 590.024719,682.269653 573.611023,672.545471 
	C573.611023,672.545471 573.561768,672.394165 573.304138,672.165588 
	C572.370483,671.603271 571.694397,671.269592 571.018372,670.935913 
	C571.018372,670.935913 570.871338,670.708069 570.551697,670.398315 
	C567.307922,667.936401 564.383850,665.784241 561.459717,663.632019 
	C561.459717,663.632019 561.437012,663.548340 561.321106,663.317688 
	C561.008301,662.809753 560.739807,662.670044 560.399719,662.667847 
	C560.399719,662.667847 560.358887,662.650513 560.212097,662.342957 
	C558.547607,660.565491 557.029968,659.095642 555.512268,657.625732 
	C555.512268,657.625732 555.499451,657.481873 555.422241,657.301758 
	C555.252319,656.893921 555.083801,656.766479 554.839417,656.739441 
	C554.839417,656.739441 554.761353,656.421692 554.488647,656.036987 
	C551.178101,649.376526 547.667847,643.281738 545.184204,636.793884 
	C534.243225,608.213501 523.509094,579.552551 512.933228,550.834961 
	C511.161865,546.025085 508.972412,544.009399 503.415344,544.040466 
	C457.620636,544.296021 411.815430,544.620422 366.033112,543.810120 
	C354.362549,543.603516 348.218933,546.639709 344.156464,557.811707 
	C337.860779,575.125244 329.873627,591.823669 322.603577,608.782837 
	C315.894257,625.981934 308.662903,643.000366 302.628479,660.433044 
	C297.060760,676.517639 300.547638,681.529602 317.376099,684.540527 
	C317.376099,687.765991 317.376099,691.044434 317.376099,694.717529 
	C294.830872,694.717529 272.305115,694.717529 249.764343,694.717529 
	C248.518616,689.241150 249.038269,685.831360 255.105194,683.019348 
	C266.703003,677.643921 274.171478,667.260620 279.780609,656.264709 
	C290.664246,634.928650 300.746399,613.174438 310.811768,591.431946 
	C350.255859,506.227692 389.590363,420.972595 428.843597,335.680298 
	C430.777771,331.477539 433.095459,329.797943 437.817291,330.078552 
	C445.456879,330.532593 453.152130,330.436493 460.804749,330.115570 
	C464.479004,329.961426 465.951294,331.368500 467.257202,334.605377 
	C492.236542,396.521118 517.392578,458.365601 542.307129,520.307251 
	C544.163574,524.922546 546.410400,526.428589 551.371399,526.215210 
	C562.170898,525.750671 573.004211,526.071716 584.388000,526.071716 
	C584.388000,532.078674 584.388000,537.799133 584.388000,543.940002 
	C573.762878,543.940002 562.992615,543.940002 551.937683,543.940002 
	C552.042664,545.153320 551.919128,546.014954 552.205627,546.706543 
	C563.418884,573.772705 574.149353,601.055725 586.088379,627.798889 
	C594.824890,647.368591 607.892334,663.640869 628.253662,672.660522 
	C657.521790,685.625732 694.385803,680.227966 715.131470,659.663147 
	C728.778076,646.135437 734.713196,629.015625 736.919189,610.365234 
	C738.243774,599.166382 737.516357,588.064331 734.613586,577.153687 
	C729.062805,556.289978 715.093384,542.734985 695.609680,535.334167 
	C676.347229,528.017456 656.421570,522.464050 636.897522,515.812195 
	C625.406555,511.897186 613.881714,507.908997 602.808899,502.973785 
	C577.435242,491.664673 562.136047,472.116211 558.610718,444.399414 
	C554.506775,412.133850 560.680603,382.401337 584.503662,358.685303 
	C604.532410,338.746552 629.758423,330.736176 657.603943,330.174530 
	C674.918030,329.825256 691.765381,333.076447 708.446899,337.235565 
	C719.810913,340.068939 730.960144,342.166779 741.796570,335.364624 
	C743.353210,334.387543 745.665527,334.407410 747.638916,334.352112 
	C750.290344,334.277832 751.891174,335.314240 751.879517,338.495789 
	C751.790527,362.994324 751.839294,387.493317 751.826416,411.992188 
	C751.826172,412.457214 751.595886,412.922119 751.490845,413.319183 
	C751.100281,413.524658 750.826599,413.784180 750.535828,413.804871 
	C740.874207,414.492889 740.939209,414.471619 738.402039,405.230927 
	C736.639648,398.812225 734.836975,392.395233 732.755005,386.075439 
	C727.450745,369.974426 716.493042,359.172485 700.791138,353.251923 
	C682.638916,346.407532 663.907104,344.109131 644.825134,348.264771 
	C613.316895,355.126617 593.054016,383.654175 594.630249,417.730225 
	C595.704834,440.961426 605.807129,458.127075 627.843445,466.546539 
	C644.143860,472.774475 661.119446,477.212616 677.568726,483.080078 
	C695.094910,489.331757 713.002319,495.026855 729.593750,503.276855 
	C761.037170,518.911926 775.500000,545.969666 776.559692,580.596191 
	C777.017395,595.553101 775.023254,610.173340 769.845459,624.993896 
	C765.242310,634.166199 760.880981,642.689941 756.519653,651.213623 
	C756.519592,651.213623 756.276001,651.307373 756.002197,651.622192 
	C753.330627,655.013245 750.932861,658.089478 748.535095,661.165710 
	C748.535095,661.165710 748.270691,661.270386 748.011475,661.515869 
	C747.354187,662.274780 746.956116,662.788208 746.558105,663.301636 
	C746.558105,663.301636 746.359863,663.320190 746.096924,663.518005 
	C745.540649,664.134399 745.247375,664.552979 744.954102,664.971619 
	C744.954102,664.971619 744.999146,665.000427 744.671936,665.091675 
	C742.099121,667.261841 739.853516,669.340820 737.607910,671.419739 
	C737.607910,671.419739 737.487000,671.429504 737.159790,671.611328 
	C727.763794,676.895874 719.010193,682.700317 709.556274,686.945312 
	C693.254517,694.265198 675.675415,695.793945 657.997375,696.116699 
	C655.947876,696.040100 653.898438,695.963440 651.028809,695.814453 
	C644.475098,695.188721 638.741516,694.635254 633.007996,694.081787 
M421.945068,390.917572 
	C421.945068,390.917572 421.883087,390.850952 421.346802,391.295807 
	C419.897034,394.531372 418.447296,397.766937 416.558838,401.377319 
	C416.377228,401.913452 416.195648,402.449554 415.558197,403.446136 
	C415.072632,404.629486 414.587067,405.812836 413.681854,407.501282 
	C413.359009,408.303589 413.036163,409.105865 412.254181,410.259827 
	C412.107574,410.809204 411.960968,411.358612 411.342072,412.309113 
	C410.808655,413.636353 410.275208,414.963593 409.204956,416.804230 
	C406.805847,422.192963 404.406769,427.581696 401.521790,433.484161 
	C388.324890,463.318512 375.127991,493.152863 361.393951,523.569031 
	C360.526794,528.176086 364.222473,525.906433 365.537720,525.910950 
	C409.674835,526.061829 453.812531,526.046387 497.950134,526.055176 
	C498.892548,526.055359 499.834930,526.055176 501.357635,526.055176 
	C500.793518,524.654846 500.451996,523.807129 500.102966,522.307251 
	C499.737488,521.528259 499.371979,520.749268 499.031464,519.280823 
	C498.387543,517.839050 497.743652,516.397278 497.092865,514.374939 
	C496.843201,513.871765 496.593536,513.368530 496.261963,512.106262 
	C491.238159,499.525452 486.214325,486.944672 481.233643,473.871033 
	C481.195099,473.526550 481.046967,473.238434 480.717865,472.302277 
	C479.615509,469.750153 478.513153,467.198059 477.285858,464.799103 
	C477.285858,464.799103 477.452393,464.692627 477.347137,463.941925 
	C473.978058,455.721924 470.608978,447.501892 467.309479,439.092773 
	C467.309479,439.092773 467.130981,438.999237 467.094421,438.237091 
	C460.845703,423.054291 454.597015,407.871490 448.179352,392.863495 
	C448.179352,392.863495 448.380493,392.726959 448.281952,391.988892 
	C444.260040,382.302155 440.238129,372.615387 435.647766,361.559509 
	C433.214844,367.029816 431.469604,370.953949 429.259979,375.238098 
	C429.063843,375.786194 428.867737,376.334290 428.171570,377.293182 
	C427.696411,378.489563 427.221252,379.685944 426.276794,381.245850 
	C426.101868,381.805939 425.926941,382.366028 425.239319,383.363434 
	C424.111084,385.877960 422.982849,388.392487 421.945068,390.917572 
z"/>
<path fill="#5E3969" opacity="1.000000" stroke="none" 
	d="
M322.978455,608.733459 
	C329.873627,591.823669 337.860779,575.125244 344.156464,557.811707 
	C348.218933,546.639709 354.362549,543.603516 366.033112,543.810120 
	C411.815430,544.620422 457.620636,544.296021 503.415344,544.040466 
	C508.972412,544.009399 511.161865,546.025085 512.933228,550.834961 
	C523.509094,579.552551 534.243225,608.213501 545.184204,636.793884 
	C547.667847,643.281738 551.178101,649.376526 554.346436,655.956055 
	C553.385925,655.876770 551.669189,655.804504 551.300720,655.062500 
	C547.614258,647.640198 543.711914,640.277039 540.727783,632.565430 
	C536.510193,621.666748 533.139648,610.443481 529.172363,599.443542 
	C526.437927,591.862000 523.238708,584.449341 520.371460,576.914001 
	C517.571045,569.554443 514.846069,562.163879 512.240662,554.733337 
	C509.853638,547.925415 505.692596,545.579895 498.073486,545.652710 
	C451.797638,546.095276 405.515381,545.880615 359.235291,545.842896 
	C354.985504,545.839417 352.232239,545.934692 350.081055,551.378357 
	C344.710968,564.967468 337.563965,577.846130 331.381622,591.126953 
	C329.159241,595.901123 327.730286,601.039856 325.767242,605.943420 
	C325.340881,607.008423 324.177307,607.778259 322.978455,608.733459 
z"/>
<path fill="#5E3969" opacity="1.000000" stroke="none" 
	d="
M658.161926,696.438232 
	C675.675415,695.793945 693.254517,694.265198 709.556274,686.945312 
	C719.010193,682.700317 727.763794,676.895874 737.141846,671.669250 
	C736.162537,673.195312 735.156250,675.221680 733.539490,676.434021 
	C723.388672,684.045837 711.956177,689.337158 699.665222,691.943787 
	C686.921448,694.646484 673.882507,695.966553 660.958252,697.788330 
	C660.145447,697.902954 659.206665,697.123291 658.161926,696.438232 
z"/>
<path fill="#5E3969" opacity="1.000000" stroke="none" 
	d="
M573.573853,672.889832 
	C590.024719,682.269653 607.533386,689.146362 626.636475,692.950256 
	C622.236206,694.360657 617.721497,694.504822 613.178772,691.831604 
	C610.536621,690.276794 607.208435,689.942261 604.345032,688.698914 
	C595.179749,684.719055 586.060059,680.630005 576.996216,676.424805 
	C575.641296,675.796143 574.680054,674.318909 573.573853,672.889832 
z"/>
<path fill="#5E3969" opacity="1.000000" stroke="none" 
	d="
M756.851074,651.275757 
	C760.880981,642.689941 765.242310,634.166199 769.815063,625.369751 
	C768.806335,629.106506 768.111084,633.383423 766.237854,637.060242 
	C763.690857,642.059692 760.243652,646.600464 756.851074,651.275757 
z"/>
<path fill="#5E3969" opacity="1.000000" stroke="none" 
	d="
M633.156860,694.398071 
	C638.741516,694.635254 644.475098,695.188721 650.591431,695.864502 
	C645.084778,695.562744 639.195251,695.138550 633.156860,694.398071 
z"/>
<path fill="#5E3969" opacity="1.000000" stroke="none" 
	d="
M748.867798,661.248291 
	C750.932861,658.089478 753.330627,655.013245 755.981934,651.751099 
	C755.644409,656.083984 753.548950,659.518860 748.867798,661.248291 
z"/>
<path fill="#5E3969" opacity="1.000000" stroke="none" 
	d="
M561.451599,663.986206 
	C564.383850,665.784241 567.307922,667.936401 570.417358,670.379639 
	C565.742920,671.174622 563.618591,667.720764 561.451599,663.986206 
z"/>
<path fill="#5E3969" opacity="1.000000" stroke="none" 
	d="
M555.441467,658.012512 
	C557.029968,659.095642 558.547607,660.565491 560.203186,662.322632 
	C558.748169,662.701172 557.155334,662.792419 555.023376,662.914490 
	C555.159729,661.141785 555.265198,659.770569 555.441467,658.012512 
z"/>
<path fill="#5E3969" opacity="1.000000" stroke="none" 
	d="
M737.963867,671.470459 
	C739.853516,669.340820 742.099121,667.261841 744.658081,665.068909 
	C742.754272,667.143677 740.537048,669.332458 737.963867,671.470459 
z"/>
<path fill="#5E3969" opacity="1.000000" stroke="none" 
	d="
M628.976807,693.658569 
	C629.491516,693.443604 630.027161,693.495544 630.780823,693.717773 
	C630.669128,694.317383 630.339417,694.746643 630.009766,695.175964 
	C629.672424,694.759094 629.335083,694.342285 628.976807,693.658569 
z"/>
<path fill="#5E3969" opacity="1.000000" stroke="none" 
	d="
M571.132935,671.232788 
	C571.694397,671.269592 572.370483,671.603271 573.224609,672.165894 
	C572.684265,672.106445 571.965942,671.818054 571.132935,671.232788 
z"/>
<path fill="#5E3969" opacity="1.000000" stroke="none" 
	d="
M746.869995,663.335938 
	C746.956116,662.788208 747.354187,662.274780 747.976868,661.653809 
	C747.861633,662.154236 747.521790,662.762268 746.869995,663.335938 
z"/>
<path fill="#5E3969" opacity="1.000000" stroke="none" 
	d="
M745.226562,664.906860 
	C745.247375,664.552979 745.540649,664.134399 746.077698,663.615723 
	C746.047302,663.957764 745.773132,664.399902 745.226562,664.906860 
z"/>
<path fill="#5E3969" opacity="1.000000" stroke="none" 
	d="
M560.480042,662.885193 
	C560.739807,662.670044 561.008301,662.809753 561.278442,663.310120 
	C561.018372,663.517334 560.754639,663.373779 560.480042,662.885193 
z"/>
<path fill="#5E3969" opacity="1.000000" stroke="none" 
	d="
M554.825684,656.913940 
	C555.083801,656.766479 555.252319,656.893921 555.351562,657.286621 
	C555.087341,657.463928 554.905273,657.342834 554.825684,656.913940 
z"/>
<path fill="#4C145E" opacity="1.000000" stroke="none" 
	d="
M409.741760,416.290863 
	C410.275208,414.963593 410.808655,413.636353 411.851440,412.068481 
	C412.478302,411.187988 412.595795,410.548065 412.713318,409.908173 
	C413.036163,409.105865 413.359009,408.303589 414.186768,407.165771 
	C415.132446,405.548767 415.573273,404.267212 416.014069,402.985657 
	C416.195648,402.449554 416.377228,401.913452 417.108093,401.090149 
	C419.065918,397.485626 420.474518,394.168274 421.883087,390.850952 
	C421.883087,390.850952 421.945068,390.917572 422.237885,390.843231 
	C424.655212,388.586212 427.722412,386.790710 425.752014,382.926086 
	C425.926941,382.366028 426.101868,381.805939 426.840851,381.013611 
	C427.827148,379.481720 428.249390,378.182068 428.671631,376.882416 
	C428.867737,376.334290 429.063843,375.786194 429.832611,374.996521 
	C431.946991,372.758911 433.488770,370.762939 435.993958,367.519684 
	C438.173523,372.585846 439.826630,376.894257 441.857758,381.016357 
	C443.830170,385.019318 446.190491,388.831177 448.380493,392.726959 
	C448.380493,392.726959 448.179352,392.863495 448.187927,393.183868 
	C448.450317,394.946136 448.484863,396.470673 448.992554,397.816803 
	C453.009552,408.468231 456.955566,419.152039 461.290161,429.674835 
	C462.667175,433.017731 465.152740,435.903992 467.130981,438.999237 
	C467.130981,438.999237 467.309479,439.092773 467.234619,439.632446 
	C470.071289,447.962524 472.964355,455.759979 475.936707,463.527130 
	C476.130951,464.034637 476.933044,464.309509 477.452393,464.692627 
	C477.452393,464.692627 477.285858,464.799103 477.257477,465.132690 
	C478.415802,467.979736 479.602478,470.493195 480.789185,473.006653 
	C481.046967,473.238434 481.195099,473.526550 481.171692,474.557251 
	C481.293549,476.542633 481.247589,477.928101 481.697845,479.127228 
	C485.006104,487.937408 488.300751,496.756470 491.858124,505.467133 
	C492.935028,508.104065 494.825867,510.408569 496.343872,512.865356 
	C496.593536,513.368530 496.843201,513.871765 496.902039,514.906555 
	C497.476288,516.948853 498.241364,518.459595 499.006470,519.970276 
	C499.371979,520.749268 499.737488,521.528259 499.716492,522.801147 
	C497.201141,523.535278 495.072510,523.982910 492.943390,523.985107 
	C451.546265,524.027832 410.149048,524.034973 368.751984,523.976013 
	C366.477875,523.972778 364.204712,523.331543 361.931091,522.987244 
	C375.127991,493.152863 388.324890,463.318512 402.092743,433.136902 
	C406.338806,427.854523 409.718109,422.792480 409.741760,416.290863 
z"/>
<path fill="#4D2759" opacity="1.000000" stroke="none" 
	d="
M361.662537,523.278137 
	C364.204712,523.331543 366.477875,523.972778 368.751984,523.976013 
	C410.149048,524.034973 451.546265,524.027832 492.943390,523.985107 
	C495.072510,523.982910 497.201141,523.535278 499.720245,523.127197 
	C500.451996,523.807129 500.793518,524.654846 501.357635,526.055176 
	C499.834930,526.055176 498.892548,526.055359 497.950134,526.055176 
	C453.812531,526.046387 409.674835,526.061829 365.537720,525.910950 
	C364.222473,525.906433 360.526794,528.176086 361.662537,523.278137 
z"/>
<path fill="#4D2759" opacity="1.000000" stroke="none" 
	d="
M467.112701,438.618164 
	C465.152740,435.903992 462.667175,433.017731 461.290161,429.674835 
	C456.955566,419.152039 453.009552,408.468231 448.992554,397.816803 
	C448.484863,396.470673 448.450317,394.946136 448.272400,393.096466 
	C454.597015,407.871490 460.845703,423.054291 467.112701,438.618164 
z"/>
<path fill="#4D2759" opacity="1.000000" stroke="none" 
	d="
M448.331238,392.357910 
	C446.190491,388.831177 443.830170,385.019318 441.857758,381.016357 
	C439.826630,376.894257 438.173523,372.585846 435.993958,367.519684 
	C433.488770,370.762939 431.946991,372.758911 430.064819,374.816467 
	C431.469604,370.953949 433.214844,367.029816 435.647766,361.559509 
	C440.238129,372.615387 444.260040,382.302155 448.331238,392.357910 
z"/>
<path fill="#4D2759" opacity="1.000000" stroke="none" 
	d="
M496.302917,512.485840 
	C494.825867,510.408569 492.935028,508.104065 491.858124,505.467133 
	C488.300751,496.756470 485.006104,487.937408 481.697845,479.127228 
	C481.247589,477.928101 481.293549,476.542633 481.150146,474.803650 
	C486.214325,486.944672 491.238159,499.525452 496.302917,512.485840 
z"/>
<path fill="#4D2759" opacity="1.000000" stroke="none" 
	d="
M477.399780,464.317261 
	C476.933044,464.309509 476.130951,464.034637 475.936707,463.527130 
	C472.964355,455.759979 470.071289,447.962524 467.199829,439.726990 
	C470.608978,447.501892 473.978058,455.721924 477.399780,464.317261 
z"/>
<path fill="#4D2759" opacity="1.000000" stroke="none" 
	d="
M409.473389,416.547546 
	C409.718109,422.792480 406.338806,427.854523 402.335693,432.880066 
	C404.406769,427.581696 406.805847,422.192963 409.473389,416.547546 
z"/>
<path fill="#4D2759" opacity="1.000000" stroke="none" 
	d="
M421.614929,391.073364 
	C420.474518,394.168274 419.065918,397.485626 417.327454,400.902710 
	C418.447296,397.766937 419.897034,394.531372 421.614929,391.073364 
z"/>
<path fill="#4D2759" opacity="1.000000" stroke="none" 
	d="
M425.495667,383.144775 
	C427.722412,386.790710 424.655212,388.586212 422.192688,390.837952 
	C422.982849,388.392487 424.111084,385.877960 425.495667,383.144775 
z"/>
<path fill="#4D2759" opacity="1.000000" stroke="none" 
	d="
M480.753540,472.654480 
	C479.602478,470.493195 478.415802,467.979736 477.319946,465.056091 
	C478.513153,467.198059 479.615509,469.750153 480.753540,472.654480 
z"/>
<path fill="#4D2759" opacity="1.000000" stroke="none" 
	d="
M499.018982,519.625549 
	C498.241364,518.459595 497.476288,516.948853 496.905457,515.196838 
	C497.743652,516.397278 498.387543,517.839050 499.018982,519.625549 
z"/>
<path fill="#4D2759" opacity="1.000000" stroke="none" 
	d="
M428.421600,377.087799 
	C428.249390,378.182068 427.827148,379.481720 427.075500,380.831848 
	C427.221252,379.685944 427.696411,378.489563 428.421600,377.087799 
z"/>
<path fill="#4D2759" opacity="1.000000" stroke="none" 
	d="
M415.786133,403.215881 
	C415.573273,404.267212 415.132446,405.548767 414.396576,406.913269 
	C414.587067,405.812836 415.072632,404.629486 415.786133,403.215881 
z"/>
<path fill="#4D2759" opacity="1.000000" stroke="none" 
	d="
M412.483765,410.083984 
	C412.595795,410.548065 412.478302,411.187988 412.087585,411.867920 
	C411.960968,411.358612 412.107574,410.809204 412.483765,410.083984 
z"/>
</svg>